<?xml version="1.0" encoding="utf-8" ?>
<svg xmlns="http://www.w3.org/2000/svg" xmlns:xlink="http://www.w3.org/1999/xlink" width="1024" height="1024">
	<path fill="white" transform="scale(2 2)" d="M170.798 162.748C171.189 151.98 170.932 141.134 170.931 130.358L170.93 73.8266C170.929 65.6255 170.178 54.8274 170.646 46.9629C202.121 48.0701 227.865 64.3678 235.57 96.7481C237.659 105.528 237.284 114.591 237.282 123.545L237.278 178.037C237.286 187.591 238.246 198.282 235.829 207.616C229.704 231.272 213.401 235.387 192.706 235.395L127.996 235.392C118.663 235.392 107.935 233.793 100.586 240.794C92.5033 248.495 92.9717 261.409 100.653 269.249C106.804 275.528 113.046 275.064 121.157 275.009L183.861 274.995C190.089 274.993 196.362 274.764 202.582 274.87C218.421 275.142 233.159 288.45 236.462 303.73C237.646 309.205 237.291 314.926 237.289 320.495L237.271 340.908C237.245 379.061 245.032 417.973 214.986 446.613C202.18 457.921 188.193 462.748 171.216 463.022C170.822 454.95 170.923 446.873 170.921 438.794L170.924 369.259C170.926 361.842 170.777 354.397 171.074 346.985C168.152 346.749 165.181 346.982 162.25 346.996L129.068 347.022C121.048 347.024 112.817 347.41 104.836 346.59C58.4413 341.825 23.201 301.016 23.0691 254.714C22.9401 209.456 58.5591 167.97 103.933 163.283C112.914 162.356 122.09 162.751 131.112 162.752L170.798 162.748Z"/>
	<path fill="white" transform="scale(2 2)" d="M298.481 447.57C274.768 427.673 274.531 408.322 274.538 381.01L274.528 322.171C274.502 302.067 277.623 281.882 301.456 276.145C309.734 274.153 320.589 274.995 329.186 274.995L378.628 274.98C385.334 274.981 393.646 275.556 400.161 275.144C418.147 274.007 425.365 243.248 403.458 236.279C398.007 234.545 388.566 235.386 382.643 235.388L331.893 235.4C323.361 235.4 310.542 236.129 302.62 234.52C287.672 231.483 275.816 216.763 274.784 201.761C274.332 195.197 274.531 188.539 274.536 181.96L274.525 123.903C274.519 115.397 274.005 106.771 275.827 98.4096C282.344 68.5068 307.599 49.1443 337.778 47.1436L341.078 46.9491C340.704 59.8093 340.496 71.9877 340.5 84.9171L340.507 136.161C340.506 145.021 340.644 153.901 340.39 162.757C360.427 162.753 380.482 162.563 400.517 162.768C447.355 163.246 489.056 205.865 488.473 252.651C488.231 272.059 484.441 287.362 474.197 304.02C456.894 332.157 427.671 347.264 395.102 347.038L379.581 347.008C366.491 347.012 353.39 347.133 340.301 346.945C340.602 357.913 340.507 368.886 340.506 379.858L340.494 447.65C340.494 452.726 340.391 457.796 340.819 462.859C324.602 462.417 311.205 457.735 298.481 447.57Z"/>
</svg>
